<svg width="2529" height="858" viewBox="0 0 2529 858" fill="none" xmlns="http://www.w3.org/2000/svg">
<path d="M1.03711 122.653L129.036 852.355L999.659 750.166C999.659 750.166 1506.84 762.946 1675.95 767.125C1905.42 772.762 2527.96 772.762 2527.96 772.762L2520.09 31.0579C2520.09 31.0579 1959.4 32.4185 1738.44 26.9277C1540.23 21.9713 947.517 5.64453 947.517 5.64453L1.03711 122.653Z" fill="#FF5900"/>
<path d="M975.169 601.622L974.829 385.778L974.684 297.196C974.684 291.948 974.585 231.208 974.585 231.208C974.585 231.208 974.537 188.204 974.488 177.126C946.158 177.126 914.037 176.202 889.643 200.692C866.366 224.162 870.447 253.803 870.496 297.293C870.496 324.31 870.642 385.923 870.642 385.923L870.739 438.257L871.468 601.816L975.218 601.671L975.169 601.622Z" fill="#F4EDE3"/>
<path d="M1692.27 382.134C1679.74 359.296 1662.2 341.658 1639.7 329.169C1617.19 316.73 1591.1 310.51 1561.41 310.559C1542.66 310.559 1524.77 313.475 1507.76 319.159C1490.8 324.844 1476.61 332.571 1465.34 342.337C1465.34 327.615 1465.29 311.093 1465.29 296.419C1465.29 291.17 1465.19 230.431 1465.19 230.431C1465.19 230.431 1465.15 187.428 1465.09 176.348C1437.06 176.348 1405.28 175.425 1381.07 199.915C1358.04 223.385 1362.07 253.026 1362.13 296.516C1362.13 323.533 1362.27 385.147 1362.27 385.147L1362.36 437.481L1362.56 601.04L1461.65 600.895L1462.18 572.759C1488.37 597.346 1521.66 609.592 1561.9 609.543C1591.2 609.543 1617.19 603.324 1639.84 590.933C1662.49 578.59 1680.04 561.194 1692.52 538.696C1705.01 516.199 1711.17 490.105 1711.13 460.415C1711.13 431.114 1704.82 405.021 1692.23 382.183L1692.27 382.134ZM1585.81 511.243C1572.93 523.584 1555.92 529.756 1534.83 529.756C1519.18 529.756 1505.09 525.82 1492.6 517.802C1480.06 509.834 1471.08 498.997 1465.58 485.295L1465.49 435.488C1470.93 421.785 1479.92 410.949 1492.4 402.931C1504.89 394.914 1518.94 390.881 1534.58 390.832C1555.67 390.832 1572.69 397.003 1585.62 409.492C1598.53 421.979 1605 438.987 1605.05 460.464C1605.05 481.942 1598.68 498.851 1585.81 511.194V511.243Z" fill="#F4EDE3"/>
<path d="M704.194 540.351C714.739 535.442 722.709 529.077 728.2 521.254V496.618C711.338 485.297 692.191 479.66 670.664 479.709C656.96 479.709 646.415 482.672 639.029 488.552C631.594 494.431 627.9 503.033 627.948 514.355C627.948 524.899 631.594 533.111 638.834 538.942C646.075 544.822 656.523 547.737 670.227 547.688C682.327 547.688 693.649 545.21 704.243 540.302M554.474 585.736C532.752 568.777 521.867 545.064 521.819 514.549C521.77 482.916 532.169 458.571 553.064 441.515C573.96 424.509 603.943 415.956 643.013 415.859C658.272 415.859 673.531 417.463 688.742 420.766C704 424.071 717.121 428.832 728.054 433.887C728.2 419.551 727.326 410.125 716.051 401.719C694.135 382.477 620.562 377.374 570.51 395.402L569.879 395.596C569.879 364.984 568.712 348.657 581.59 335.682C598.452 318.773 617.987 312.602 676.155 312.505C728.541 312.408 764.111 322.368 790.936 343.214C817.712 364.06 831.172 393.264 831.22 430.777L831.416 559.447C831.464 593.948 819.46 601.964 790.887 602.013L727.617 602.111V578.058C727.714 578.884 724.167 582.286 723.486 582.917C710.414 595.454 694.719 603.472 677.03 607.359C657.398 611.684 636.308 612.12 616.384 609.691C599.424 607.65 582.708 602.937 567.789 594.53C563.124 591.907 558.701 588.942 554.474 585.687" fill="#F4EDE3"/>
<path d="M427.902 386.603L501.183 386.506V351.859C501.085 330.431 483.689 314.104 462.209 314.152H427.756C427.756 304.192 427.659 248.408 427.659 248.408C427.659 248.408 427.61 205.404 427.562 194.325C399.23 194.325 367.11 193.402 342.715 217.893C319.438 241.362 323.521 270.857 323.569 314.395L250.094 314.492V348.069C250.191 369.498 267.588 386.894 289.018 386.845H323.666L323.763 439.13L324.346 500.745C324.784 562.602 375.128 612.554 437.038 612.456C459.051 612.456 479.558 606.043 496.858 595.11L496.76 527.616C455.406 542.484 428.047 512.455 427.999 475.283C427.999 470.278 427.853 386.651 427.853 386.651L427.902 386.603Z" fill="#F4EDE3"/>
<path d="M2217.05 383.786L2290.34 383.688V349.043C2290.24 327.613 2272.84 311.286 2251.36 311.336H2216.91C2216.91 301.374 2216.8 245.591 2216.8 245.591C2216.8 245.591 2216.76 202.587 2216.71 191.508C2188.39 191.508 2156.27 190.585 2131.87 215.075C2108.59 238.545 2112.68 268.04 2112.72 311.579L2039.24 311.676V345.252C2039.35 366.682 2056.74 384.078 2078.17 384.029H2112.82L2112.91 436.314L2113.5 497.927C2113.94 559.785 2164.28 609.737 2226.19 609.64C2248.2 609.64 2268.71 603.225 2286.01 592.293L2285.91 524.799C2244.56 539.668 2217.2 509.638 2217.15 472.465C2217.15 467.46 2217.01 383.835 2217.01 383.835L2217.05 383.786Z" fill="#F4EDE3"/>
<path d="M1193.98 539.578C1204.53 534.67 1212.5 528.304 1217.99 520.481V495.846C1201.13 484.523 1181.98 478.886 1160.45 478.935C1146.74 478.935 1136.2 481.9 1128.82 487.779C1121.38 493.659 1117.69 502.259 1117.74 513.581C1117.74 524.126 1121.38 532.338 1128.62 538.169C1135.86 544.048 1146.32 546.963 1160.02 546.915C1172.11 546.915 1183.44 544.437 1194.03 539.529M1044.26 584.962C1022.54 568.003 1011.66 544.291 1011.61 513.775C1011.56 483.26 1021.96 457.798 1042.85 440.742C1063.75 423.735 1093.73 415.183 1132.8 415.086C1148.07 415.086 1163.32 416.689 1178.53 419.994C1193.79 423.298 1206.91 428.06 1217.84 433.113C1217.99 418.779 1217.12 409.352 1205.84 400.946C1183.92 381.703 1110.35 376.602 1060.3 394.629L1059.67 394.823C1059.67 364.21 1058.5 347.883 1071.38 334.91C1088.24 317.999 1107.78 311.828 1165.95 311.731C1218.32 311.634 1253.9 321.596 1280.72 342.441C1307.51 363.287 1320.96 392.49 1321.01 430.003L1321.2 558.675C1321.26 593.174 1309.26 601.192 1280.68 601.241L1217.41 601.338V577.284C1217.5 578.111 1213.95 581.512 1213.28 582.145C1200.2 594.68 1184.51 602.698 1166.82 606.585C1147.18 610.91 1126.1 611.348 1106.17 608.918C1089.21 606.878 1072.5 602.164 1057.58 593.758C1052.91 591.133 1048.49 588.17 1044.26 584.914" fill="#F4EDE3"/>
<path d="M1908.72 538.458C1919.26 533.549 1927.23 527.184 1932.72 519.36V494.724C1915.85 483.402 1896.72 477.767 1875.19 477.815C1861.48 477.815 1850.93 480.779 1843.55 486.658C1836.11 492.538 1832.42 501.139 1832.48 512.46C1832.48 523.005 1836.11 531.217 1843.36 537.048C1850.6 542.927 1861.04 545.843 1874.75 545.795C1886.85 545.795 1898.17 543.317 1908.76 538.408M1759 583.841C1737.28 566.883 1726.39 543.171 1726.34 512.654C1726.29 482.139 1736.69 456.678 1757.59 439.622C1778.49 422.614 1808.46 414.062 1847.54 413.965C1862.79 413.965 1878.05 415.568 1893.26 418.873C1908.53 422.177 1921.64 426.939 1932.57 431.992C1932.72 417.658 1931.85 408.231 1920.57 399.825C1898.66 380.582 1825.08 375.481 1775.03 393.509L1774.4 393.703C1774.4 363.089 1773.24 346.762 1786.11 333.788C1802.97 316.879 1822.51 310.708 1880.67 310.61C1933.06 310.513 1968.63 320.475 1995.46 341.321C2022.23 362.167 2035.7 391.37 2035.74 428.883L2035.94 557.554C2035.98 592.053 2023.98 600.071 1995.4 600.12L1932.13 600.217V576.164C1932.24 576.991 1928.69 580.391 1928.01 581.023C1914.94 593.56 1899.23 601.578 1881.55 605.465C1861.92 609.79 1840.83 610.227 1820.9 607.798C1803.94 605.756 1787.22 601.043 1772.31 592.637C1767.65 590.013 1763.22 587.049 1759 583.793" fill="#F4EDE3"/>
</svg>
